# xmcd
#
# Track frame offsets: 
#        150
#        14375
#        36278
#        53153
#        68414
#        92541
#        103983
#        119033
#        132604
#        157019
#        175431
#        186208
#        199481
#
# Disc length: 2943 seconds
#
# Revision: 0
# Processed by: cddbd v1.5.2PL0 Copyright (c) Steve Scherf et al.
# Submitted via: ExactAudioCopy v0.99pb3
#
DISCID=c20b7d0d
DTITLE=Cafe Blues - Gun kechdi
DYEAR=1900
DGENRE=Blues
TTITLE0=Azerbaijan
TTITLE1=Baki Sabahin Heyir
TTITLE2=Konlum
TTITLE3=Azizim
TTITLE4=Zalim Dunya
TTITLE5=Yadhil Ada
TTITLE6=Kepenek
TTITLE7=Bayatilar (k/f Gun kechdi)
TTITLE8=Sen menim, Men senim
TTITLE9=Elnara
TTITLE10=Chasurlarin mahnisi
TTITLE11=Her shey Gozeldir
TTITLE12=Ulu Torpag
EXTD=
EXTT0=
EXTT1=
EXTT2=
EXTT3=
EXTT4=
EXTT5=
EXTT6=
EXTT7=
EXTT8=
EXTT9=
EXTT10=
EXTT11=
EXTT12=
PLAYORDER=
